Coordinates
version=1
nRows=13
nColumns=36
inDegrees=yes

Units are S.I. units (second, meters, Newtons, ...)
If the header above contains a line with 'inDegrees', this indicates whether rotational values are in degrees (yes) or radians (no).

endheader
time	pelvis_tilt	pelvis_list	pelvis_rotation	pelvis_tx	pelvis_ty	pelvis_tz	hip_flexion_r	hip_adduction_r	hip_rotation_r	knee_angle_r	knee_angle_r_beta	ankle_angle_r	subtalar_angle_r	mtp_angle_r	hip_flexion_l	hip_adduction_l	hip_rotation_l	knee_angle_l	knee_angle_l_beta	ankle_angle_l	subtalar_angle_l	mtp_angle_l	lumbar_extension	lumbar_bending	lumbar_rotation	arm_flex_r	arm_add_r	arm_rot_r	elbow_flex_r	pro_sup_r	arm_flex_l	arm_add_l	arm_rot_l	elbow_flex_l	pro_sup_l
      0.00000000	     -2.08775684	     -1.71922092	      2.11622282	     -0.00310017	      0.92046837	     -0.21392438	     28.97221158	     -1.02248802	     -1.46426190	      5.71825507	      0.09980238	     -2.07090473	      0.05086424	     -4.65057960	    -15.07202355	     -4.07342605	     -7.72608879	     11.85376928	      0.20688730	     19.57870323	      0.52414433	     -4.65057960	     -7.48140338	     -2.37843506	    -12.75267379	     -5.37982517	     -5.10931711	    -12.38579132	     42.40756304	    102.46944728	     14.14730837	    -15.45591407	      1.37419055	     50.24625895	    101.10168500
      0.01000000	     -1.89713517	     -2.49944107	      2.28157673	      0.01067210	      0.92023456	     -0.21164764	     28.66307042	     -0.14998240	     -1.77038116	      6.83580603	      0.11930732	     -3.83575165	     -1.36308576	     -4.77762459	    -15.12833920	     -5.24776240	     -7.56334376	     13.71891652	      0.23944026	     18.54004112	     -0.62096836	     -4.77762459	     -7.66617422	     -1.13769854	    -12.78216771	     -5.17775973	     -5.06605113	    -12.54465063	     41.60867601	    102.65397932	     14.00462228	    -15.08308656	      0.87305009	     50.13211505	    101.93328648
      0.02000000	     -1.62057691	     -3.25715958	      2.42475292	      0.02453027	      0.92012324	     -0.20939127	     28.31500195	      0.68954869	     -2.30516627	      8.10310924	      0.14142594	     -4.73891697	     -1.83957065	     -4.80385374	    -15.19970061	     -6.40968147	     -7.51877410	     15.75301728	      0.27494202	     17.58132006	     -1.39316046	     -4.80385374	     -7.95372981	      0.09960118	    -12.66074206	     -5.02426550	     -5.08716707	    -12.75977496	     40.94802924	    102.63219952	     13.93534606	    -14.72321026	      0.70207498	     50.08623701	    102.07504707
      0.03000000	     -1.46724851	     -4.07262876	      2.62764401	      0.03849006	      0.92005537	     -0.20710188	     28.06373991	      1.57882194	     -2.90195222	      9.30720905	      0.16244144	     -6.01631907	     -2.67486372	     -4.84628743	    -14.97824889	     -7.61381217	     -7.12867198	     17.99445609	      0.31406251	     16.23852898	     -2.80124566	     -4.84628743	     -8.03460812	      1.39543892	    -12.70731168	     -4.81293761	     -5.02638577	    -13.07343234	     40.20927399	    102.61239645	     13.63981155	    -14.31901286	      0.28668130	     49.95380265	    102.27922732
      0.04000000	     -1.29592537	     -4.71655268	      2.79032657	      0.05235346	      0.92027153	     -0.20478433	     27.76026732	      2.36280662	     -2.92506968	     10.50625473	      0.18336874	     -7.26947942	     -4.27621771	     -4.97853520	    -14.61233529	     -8.48978397	     -6.04309188	     20.40390625	      0.35611534	     13.82336670	     -5.77361133	     -4.97853520	     -8.17290575	      2.47440431	    -12.76141724	     -4.50989430	     -4.96327661	    -13.20282332	     39.44126776	    102.68697838	     13.18608789	    -13.84476840	     -0.50918934	     50.09641073	    102.95312290
      0.05000000	     -1.04020869	     -5.48461952	      2.90069972	      0.06628075	      0.92076538	     -0.20217912	     27.36660605	      3.29275135	     -3.39317654	     11.76357212	      0.20531307	     -7.59819912	     -4.89577535	     -5.03366977	    -13.99322110	     -9.64331152	     -5.65129993	     23.44150229	      0.40913140	     11.87808976	     -7.25406184	     -5.03366977	     -8.40033095	      3.65192246	    -12.53996089	     -4.29607036	     -4.92816517	    -13.33533262	     38.88954073	    102.66558348	     12.87973326	    -13.42771455	     -0.70527762	     49.99750830	    103.18995667
      0.06000000	     -0.79492017	     -6.08322493	      2.95712497	      0.07996115	      0.92152927	     -0.19949113	     26.95118795	      4.11586220	     -3.54021466	     13.00525195	      0.22698447	     -7.68022902	     -5.82448805	     -5.15318956	    -13.14895108	    -10.46088014	     -4.71425681	     26.68186208	      0.46568634	      8.75605558	    -10.28730771	     -5.15318956	     -8.68750551	      4.60874785	    -12.23155008	     -4.03125927	     -4.83826381	    -13.37124528	     38.30163383	    102.63354695	     12.49794555	    -12.99653540	     -1.05760743	     50.00954881	    103.67000352
      0.07000000	     -0.57790035	     -6.86157686	      2.99370585	      0.09360987	      0.92237995	     -0.19672915	     26.48082112	      5.13113615	     -3.84971284	     14.10657108	      0.24620611	     -7.26380270	     -6.41403090	     -5.20216974	    -11.94598735	    -11.62732676	     -4.35823713	     30.45348066	      0.53151351	      6.21279876	    -11.85182483	     -5.20216974	     -8.91345344	      5.75762000	    -11.80474293	     -3.80139656	     -4.80718913	    -13.41694783	     37.90373402	    102.58254267	     12.11064347	    -12.54162781	     -1.06807404	     49.90542134	    103.83889995
      0.08000000	     -0.33957640	     -7.61574398	      2.96827821	      0.10698874	      0.92340021	     -0.19387761	     25.89573250	      6.17392815	     -4.07867134	     15.04176276	      0.26252829	     -6.51993946	     -7.01102412	     -5.23525655	    -10.56783208	    -12.73173165	     -3.91564826	     34.44117532	      0.60111191	      3.47381093	    -13.48621077	     -5.23525655	     -9.19313262	      6.82371914	    -11.17875897	     -3.56397220	     -4.77672547	    -13.41464444	     37.51891193	    102.53014350	     11.77942585	    -12.05741835	     -1.01771198	     49.88829436	    103.95481227
      0.09000000	     -0.27586891	     -8.06614067	      2.85890073	      0.11979910	      0.92446346	     -0.19124266	     25.53062114	      6.88010908	     -4.19133750	     16.06489774	      0.28038536	     -5.76396660	     -7.35074181	     -5.34210317	     -8.87873227	    -13.19579222	     -2.83014551	     38.32104819	      0.66882846	     -1.07676557	    -17.53040735	     -5.34210317	     -9.39744991	      7.54258230	    -10.57748710	     -3.17068188	     -4.72162574	    -13.29389468	     37.14876950	    102.40251795	     11.37658146	    -11.59336741	     -0.97540762	     49.73085087	    104.27441260
      0.10000000	     -0.19446367	     -8.69860824	      2.72213969	      0.13247474	      0.92557765	     -0.18859313	     24.98149757	      7.79246217	     -4.40793133	     16.74989544	      0.29234082	     -4.73338130	     -7.46888842	     -5.43691979	     -7.05185262	    -13.98044875	     -2.16386514	     42.40703616	      0.74014241	     -4.16624381	    -19.60581770	     -5.43691979	     -9.60279381	      8.43937242	     -9.81934016	     -2.83546025	     -4.72483064	    -13.16112545	     36.93332461	    102.28978014	     11.00413781	    -11.10334357	     -0.77659793	     49.59746519	    104.52157894
      0.11000000	     -0.12439010	     -9.25508366	      2.53643523	      0.14484702	      0.92683294	     -0.18612334	     24.33926269	      8.61976410	     -4.62160194	     17.23216336	      0.30075799	     -3.61773163	     -7.36509666	     -5.54080196	     -5.15631000	    -14.59240454	     -1.45286282	     46.39909815	      0.80981703	     -6.85706970	    -21.51271002	     -5.54080196	     -9.84536958	      9.24088328	     -8.95787939	     -2.45688120	     -4.75707355	    -12.99447495	     36.78820459	    102.18592794	     10.64212871	    -10.58452073	     -0.48671542	     49.44194019	    104.75360488
      0.12000000	     -0.05293785	     -9.80017583	      2.31787881	      0.15696303	      0.92822008	     -0.18373742	     23.56062999	      9.46020120	     -4.72858279	     17.43108195	      0.30422977	     -2.64595108	     -7.37017659	     -5.57288645	     -3.22226937	    -15.17296632	     -0.81833985	     50.28335127	      0.87761004	     -8.17737683	    -22.35216161	     -5.57288645	    -10.11826688	     10.00446131	     -8.05282490	     -2.02674589	     -4.79276967	    -12.83455424	     36.76374444	    102.17300435	     10.24289127	    -10.05769443	     -0.19811826	     49.33477673	    104.83186555
